<svg xmlns="http://www.w3.org/2000/svg" version="1.1" xmlns:xlink="http://www.w3.org/1999/xlink" xmlns:svgjs="http://svgjs.com/svgjs" width="1440" height="560" preserveAspectRatio="none" viewBox="0 0 1440 560">
    <g mask="url(&quot;#SvgjsMask1000&quot;)" fill="none">
        <rect width="1440" height="560" x="0" y="0" fill="#0e2a47"></rect>
        <path d="M 0,2 C 57.6,48.6 172.8,233 288,235 C 403.2,237 460.8,27 576,12 C 691.2,-3 748.8,137 864,160 C 979.2,183 1036.8,115.2 1152,127 C 1267.2,138.8 1382.4,200.6 1440,219L1440 560L0 560z" fill="#184a7e"></path>
        <path d="M 0,360 C 96,374.4 288,421.8 480,432 C 672,442.2 768,395.8 960,411 C 1152,426.2 1344,488.6 1440,508L1440 560L0 560z" fill="#2264ab"></path>
    </g>
    <defs>
        <mask id="SvgjsMask1000">
            <rect width="1440" height="560" fill="#ffffff"></rect>
        </mask>
    </defs>
</svg>