<svg xmlns="http://www.w3.org/2000/svg" version="1.1" xmlns:xlink="http://www.w3.org/1999/xlink" xmlns:svgjs="http://svgjs.com/svgjs" width="1440" height="560" preserveAspectRatio="none" viewBox="0 0 1440 560">
    <g mask="url(&quot;#SvgjsMask1000&quot;)" fill="none">
        <rect width="1440" height="560" x="0" y="0" fill="#0e2a47"></rect>
        <path d="M656 55L655 418" stroke-width="10" stroke="url(#SvgjsLinearGradient1001)" stroke-linecap="round" class="Up"></path>
        <path d="M1143 18L1142 185" stroke-width="6" stroke="url(#SvgjsLinearGradient1002)" stroke-linecap="round" class="Down"></path>
        <path d="M590 68L589 -316" stroke-width="10" stroke="url(#SvgjsLinearGradient1002)" stroke-linecap="round" class="Down"></path>
        <path d="M1272 253L1271 573" stroke-width="8" stroke="url(#SvgjsLinearGradient1001)" stroke-linecap="round" class="Up"></path>
        <path d="M1334 140L1333 -261" stroke-width="10" stroke="url(#SvgjsLinearGradient1002)" stroke-linecap="round" class="Down"></path>
        <path d="M1068 101L1067 -258" stroke-width="6" stroke="url(#SvgjsLinearGradient1001)" stroke-linecap="round" class="Up"></path>
        <path d="M777 222L776 636" stroke-width="8" stroke="url(#SvgjsLinearGradient1001)" stroke-linecap="round" class="Up"></path>
        <path d="M1229 374L1228 57" stroke-width="8" stroke="url(#SvgjsLinearGradient1001)" stroke-linecap="round" class="Up"></path>
        <path d="M109 374L108 49" stroke-width="10" stroke="url(#SvgjsLinearGradient1001)" stroke-linecap="round" class="Up"></path>
        <path d="M1237 492L1236 882" stroke-width="6" stroke="url(#SvgjsLinearGradient1002)" stroke-linecap="round" class="Down"></path>
        <path d="M1115 95L1114 -92" stroke-width="8" stroke="url(#SvgjsLinearGradient1002)" stroke-linecap="round" class="Down"></path>
        <path d="M702 224L701 382" stroke-width="10" stroke="url(#SvgjsLinearGradient1001)" stroke-linecap="round" class="Up"></path>
        <path d="M484 389L483 772" stroke-width="8" stroke="url(#SvgjsLinearGradient1002)" stroke-linecap="round" class="Down"></path>
        <path d="M525 145L524 -110" stroke-width="8" stroke="url(#SvgjsLinearGradient1001)" stroke-linecap="round" class="Up"></path>
        <path d="M1276 218L1275 572" stroke-width="8" stroke="url(#SvgjsLinearGradient1001)" stroke-linecap="round" class="Up"></path>
        <path d="M897 162L896 317" stroke-width="10" stroke="url(#SvgjsLinearGradient1001)" stroke-linecap="round" class="Up"></path>
        <path d="M877 285L876 10" stroke-width="6" stroke="url(#SvgjsLinearGradient1001)" stroke-linecap="round" class="Up"></path>
        <path d="M302 403L301 732" stroke-width="10" stroke="url(#SvgjsLinearGradient1002)" stroke-linecap="round" class="Down"></path>
        <path d="M725 531L724 857" stroke-width="8" stroke="url(#SvgjsLinearGradient1002)" stroke-linecap="round" class="Down"></path>
        <path d="M742 388L741 799" stroke-width="10" stroke="url(#SvgjsLinearGradient1002)" stroke-linecap="round" class="Down"></path>
        <path d="M472 16L471 -181" stroke-width="8" stroke="url(#SvgjsLinearGradient1001)" stroke-linecap="round" class="Up"></path>
        <path d="M269 153L268 526" stroke-width="10" stroke="url(#SvgjsLinearGradient1002)" stroke-linecap="round" class="Down"></path>
        <path d="M1032 290L1031 578" stroke-width="6" stroke="url(#SvgjsLinearGradient1001)" stroke-linecap="round" class="Up"></path>
        <path d="M328 296L327 -8" stroke-width="6" stroke="url(#SvgjsLinearGradient1001)" stroke-linecap="round" class="Up"></path>
        <path d="M1008 381L1007 614" stroke-width="10" stroke="url(#SvgjsLinearGradient1002)" stroke-linecap="round" class="Down"></path>
        <path d="M648 313L647 128" stroke-width="8" stroke="url(#SvgjsLinearGradient1002)" stroke-linecap="round" class="Down"></path>
        <path d="M280 519L279 357" stroke-width="8" stroke="url(#SvgjsLinearGradient1001)" stroke-linecap="round" class="Up"></path>
        <path d="M1309 516L1308 832" stroke-width="8" stroke="url(#SvgjsLinearGradient1002)" stroke-linecap="round" class="Down"></path>
        <path d="M1210 557L1209 730" stroke-width="6" stroke="url(#SvgjsLinearGradient1002)" stroke-linecap="round" class="Down"></path>
        <path d="M921 545L920 394" stroke-width="10" stroke="url(#SvgjsLinearGradient1002)" stroke-linecap="round" class="Down"></path>
        <path d="M943 109L942 284" stroke-width="8" stroke="url(#SvgjsLinearGradient1002)" stroke-linecap="round" class="Down"></path>
        <path d="M572 62L571 -354" stroke-width="10" stroke="url(#SvgjsLinearGradient1002)" stroke-linecap="round" class="Down"></path>
        <path d="M1279 389L1278 613" stroke-width="8" stroke="url(#SvgjsLinearGradient1001)" stroke-linecap="round" class="Up"></path>
        <path d="M344 263L343 478" stroke-width="6" stroke="url(#SvgjsLinearGradient1001)" stroke-linecap="round" class="Up"></path>
        <path d="M419 367L418 45" stroke-width="8" stroke="url(#SvgjsLinearGradient1002)" stroke-linecap="round" class="Down"></path>
        <path d="M98 201L97 -15" stroke-width="6" stroke="url(#SvgjsLinearGradient1002)" stroke-linecap="round" class="Down"></path>
    </g>
    <defs>
        <mask id="SvgjsMask1000">
            <rect width="1440" height="560" fill="#ffffff"></rect>
        </mask>
        <linearGradient x1="0%" y1="100%" x2="0%" y2="0%" id="SvgjsLinearGradient1001">
            <stop stop-color="rgba(28, 83, 142, 0)" offset="0"></stop>
            <stop stop-color="#1c538e" offset="1"></stop>
        </linearGradient>
        <linearGradient x1="0%" y1="0%" x2="0%" y2="100%" id="SvgjsLinearGradient1002">
            <stop stop-color="rgba(28, 83, 142, 0)" offset="0"></stop>
            <stop stop-color="#1c538e" offset="1"></stop>
        </linearGradient>
    </defs>
</svg>